<?xml version="1.0" standalone="no"?>
<!DOCTYPE svg PUBLIC "-//W3C//DTD SVG 20010904//EN"
 "http://www.w3.org/TR/2001/REC-SVG-20010904/DTD/svg10.dtd">
<svg version="1.0" xmlns="http://www.w3.org/2000/svg"
 width="453.000000pt" height="453.000000pt" viewBox="0 0 453.000000 453.000000"
 preserveAspectRatio="xMidYMid meet">
<metadata>
Created by potrace 1.14, written by Peter Selinger 2001-2017
</metadata>
<g transform="translate(0.000000,453.000000) scale(0.100000,-0.100000)"
fill="#000000" stroke="none">
<path d="M2125 4523 c-27 -2 -90 -8 -140 -14 -706 -88 -1328 -502 -1684 -1121
-346 -602 -390 -1345 -120 -1995 110 -265 253 -482 457 -695 872 -910 2326
-925 3217 -33 666 667 849 1661 464 2528 -245 552 -736 1005 -1304 1203 -114
40 -297 87 -400 103 -112 17 -312 32 -378 29 -34 -2 -84 -4 -112 -5z"/>
</g>
</svg>
